<mxfile host="Electron" agent="Mozilla/5.0 (Windows NT 10.0; Win64; x64) AppleWebKit/537.36 (KHTML, like Gecko) draw.io/26.0.16 Chrome/132.0.6834.196 Electron/34.2.0 Safari/537.36" version="26.0.16">
  <diagram name="第 1 页" id="180LNDe01xfbv11jqJmD">
    <mxGraphModel dx="730" dy="526" grid="1" gridSize="10" guides="1" tooltips="1" connect="1" arrows="1" fold="1" page="1" pageScale="1" pageWidth="827" pageHeight="1169" math="0" shadow="0">
      <root>
        <mxCell id="0" />
        <mxCell id="1" parent="0" />
        <mxCell id="zTv-ETtqi-Y-dwMeHR3s-1" value="空闲" style="ellipse;whiteSpace=wrap;html=1;aspect=fixed;" vertex="1" parent="1">
          <mxGeometry x="320" y="118" width="80" height="80" as="geometry" />
        </mxCell>
        <mxCell id="zTv-ETtqi-Y-dwMeHR3s-6" style="edgeStyle=orthogonalEdgeStyle;rounded=0;orthogonalLoop=1;jettySize=auto;html=1;exitX=1;exitY=0.5;exitDx=0;exitDy=0;entryX=0;entryY=0.5;entryDx=0;entryDy=0;dashed=1;" edge="1" parent="1" source="zTv-ETtqi-Y-dwMeHR3s-2" target="zTv-ETtqi-Y-dwMeHR3s-3">
          <mxGeometry relative="1" as="geometry" />
        </mxCell>
        <mxCell id="zTv-ETtqi-Y-dwMeHR3s-2" value="下发" style="ellipse;whiteSpace=wrap;html=1;aspect=fixed;" vertex="1" parent="1">
          <mxGeometry x="231" y="260" width="80" height="80" as="geometry" />
        </mxCell>
        <mxCell id="zTv-ETtqi-Y-dwMeHR3s-3" value="占用" style="ellipse;whiteSpace=wrap;html=1;aspect=fixed;" vertex="1" parent="1">
          <mxGeometry x="407" y="260" width="80" height="80" as="geometry" />
        </mxCell>
        <mxCell id="zTv-ETtqi-Y-dwMeHR3s-5" value="" style="endArrow=classic;html=1;rounded=0;exitX=0;exitY=1;exitDx=0;exitDy=0;entryX=0.5;entryY=0;entryDx=0;entryDy=0;dashed=1;" edge="1" parent="1" source="zTv-ETtqi-Y-dwMeHR3s-1" target="zTv-ETtqi-Y-dwMeHR3s-2">
          <mxGeometry width="50" height="50" relative="1" as="geometry">
            <mxPoint x="130" y="430" as="sourcePoint" />
            <mxPoint x="180" y="380" as="targetPoint" />
          </mxGeometry>
        </mxCell>
        <mxCell id="zTv-ETtqi-Y-dwMeHR3s-7" value="" style="endArrow=classic;html=1;rounded=0;entryX=1;entryY=1;entryDx=0;entryDy=0;exitX=0.5;exitY=0;exitDx=0;exitDy=0;dashed=1;" edge="1" parent="1" source="zTv-ETtqi-Y-dwMeHR3s-3" target="zTv-ETtqi-Y-dwMeHR3s-1">
          <mxGeometry width="50" height="50" relative="1" as="geometry">
            <mxPoint x="520" y="400" as="sourcePoint" />
            <mxPoint x="570" y="350" as="targetPoint" />
          </mxGeometry>
        </mxCell>
        <mxCell id="zTv-ETtqi-Y-dwMeHR3s-8" value="&lt;b&gt;&lt;i&gt;server thread&lt;/i&gt;&lt;/b&gt;&lt;div&gt;消息处理&lt;/div&gt;" style="text;html=1;align=center;verticalAlign=middle;resizable=0;points=[];autosize=1;strokeColor=none;fillColor=none;" vertex="1" parent="1">
          <mxGeometry x="414" y="198" width="100" height="40" as="geometry" />
        </mxCell>
        <mxCell id="zTv-ETtqi-Y-dwMeHR3s-11" value="&lt;b&gt;&lt;i&gt;server thread&lt;/i&gt;&lt;/b&gt;&lt;div&gt;下发 WR&lt;/div&gt;" style="text;html=1;align=center;verticalAlign=middle;resizable=0;points=[];autosize=1;strokeColor=none;fillColor=none;" vertex="1" parent="1">
          <mxGeometry x="205" y="198" width="100" height="40" as="geometry" />
        </mxCell>
        <mxCell id="zTv-ETtqi-Y-dwMeHR3s-12" value="&lt;b&gt;&lt;i&gt;listen thread&lt;/i&gt;&lt;/b&gt;&lt;div&gt;检查消息写入与否&lt;/div&gt;" style="text;html=1;align=center;verticalAlign=middle;resizable=0;points=[];autosize=1;strokeColor=none;fillColor=none;" vertex="1" parent="1">
          <mxGeometry x="295" y="302" width="120" height="40" as="geometry" />
        </mxCell>
      </root>
    </mxGraphModel>
  </diagram>
</mxfile>
